<?xml version="1.0" standalone="no"?>
<!DOCTYPE svg PUBLIC "-//W3C//DTD SVG 20010904//EN"
 "http://www.w3.org/TR/2001/REC-SVG-20010904/DTD/svg10.dtd">
<svg version="1.0" xmlns="http://www.w3.org/2000/svg"
 width="1280.000000pt" height="783.000000pt" viewBox="0 0 1280.000000 783.000000"
 preserveAspectRatio="xMidYMid meet">
<metadata>
Created by potrace 1.15, written by Peter Selinger 2001-2017
</metadata>
<g transform="translate(0.000000,783.000000) scale(0.100000,-0.100000)"
fill="#000000" stroke="none">
<path d="M7025 6853 c-31 -7 -45 -33 -45 -79 0 -24 -5 -46 -10 -49 -13 -8 -30
38 -23 64 7 27 -13 51 -43 51 -16 0 -33 -13 -54 -41 -29 -41 -30 -41 -39 -18
-5 13 -10 33 -12 44 -4 16 -13 20 -54 22 -69 2 -84 -4 -93 -39 -10 -41 -29
-47 -38 -11 -9 38 -19 43 -85 43 -57 0 -78 -12 -92 -53 -9 -23 -31 -17 -36 9
-5 31 -22 44 -57 44 -37 0 -64 -29 -64 -67 0 -34 -18 -28 -34 12 -12 29 -20
35 -45 35 -41 0 -56 -19 -71 -92 l-13 -63 -17 69 c-10 41 -24 74 -35 82 -37
28 -99 -14 -110 -74 -14 -75 -45 -75 -45 0 0 47 -22 70 -58 62 -40 -10 -62
-33 -63 -68 0 -17 -4 -40 -9 -51 -7 -19 -9 -18 -19 8 -6 16 -11 35 -11 43 0 9
-5 24 -11 36 -9 16 -17 19 -41 14 -52 -10 -58 -21 -51 -86 3 -32 3 -67 -1 -77
-13 -33 -36 14 -36 73 0 76 -29 99 -94 74 -21 -8 -26 -16 -26 -47 -1 -21 -7
-51 -14 -68 l-13 -30 -7 50 c-11 73 -12 75 -49 75 -44 0 -55 -14 -59 -74 -4
-68 -24 -70 -35 -4 -8 50 -10 53 -37 53 -31 0 -41 -12 -51 -60 l-7 -30 -26 33
c-42 51 -100 40 -127 -23 -17 -43 -29 -44 -45 -5 -18 43 -52 40 -103 -10 -22
-23 -43 -37 -46 -32 -9 13 -47 32 -64 32 -9 0 -28 -20 -44 -45 -15 -25 -31
-45 -34 -45 -4 0 -12 14 -19 30 -14 35 -12 34 -50 15 -17 -9 -30 -24 -30 -34
0 -9 -11 -28 -24 -40 l-23 -22 -17 36 c-20 41 -48 46 -71 11 -12 -18 -19 -84
-31 -287 -8 -145 -17 -275 -20 -289 -16 -66 -18 28 -6 262 7 139 10 263 7 276
-3 13 -13 22 -25 22 -11 0 -26 -10 -34 -22 -16 -24 -19 -64 -37 -433 -11 -234
-23 -314 -41 -281 -7 13 -7 82 1 220 7 110 15 263 18 339 l6 137 -26 0 c-18 0
-34 -11 -51 -33 l-26 -34 -1 -264 c-1 -265 -6 -325 -24 -322 -23 4 -28 79 -19
309 8 192 7 244 -3 267 -16 32 -15 32 -54 12 -41 -22 -49 -49 -49 -175 0 -60
-3 -115 -6 -124 -16 -42 -24 -5 -24 112 0 147 -6 164 -45 138 -37 -24 -45 -54
-45 -161 0 -52 -4 -96 -9 -99 -15 -10 -21 22 -21 110 0 70 -3 86 -17 91 -35
13 -50 -29 -58 -157 -4 -66 -11 -120 -16 -120 -5 0 -9 44 -9 98 0 110 -7 130
-38 113 -31 -16 -41 -64 -44 -198 -2 -118 -1 -124 23 -149 26 -29 247 -140
394 -197 143 -57 252 -84 499 -127 127 -22 308 -53 401 -69 174 -30 567 -73
845 -91 594 -39 1458 -28 2070 26 285 25 581 54 657 65 214 30 1084 320 1151
384 19 18 25 37 32 116 5 52 16 114 25 138 24 68 21 76 -52 130 -54 41 -70 49
-80 38 -8 -7 -17 -67 -23 -157 -12 -157 -16 -180 -32 -180 -7 0 -8 54 -3 173
7 167 6 173 -14 191 -21 19 -22 19 -35 0 -8 -10 -18 -57 -21 -104 -9 -108 -17
-151 -30 -150 -6 0 -9 53 -7 143 1 78 0 152 -3 164 -6 27 -62 48 -81 32 -8 -6
-14 -22 -14 -34 0 -12 -6 -28 -14 -34 -19 -16 -36 14 -36 62 0 26 -6 39 -26
52 -32 21 -48 9 -62 -45 l-9 -35 -14 49 c-9 31 -24 56 -42 70 l-29 21 -21 -26
c-12 -14 -27 -34 -33 -44 -9 -16 -14 -10 -34 41 -42 105 -64 114 -59 22 5 -76
-16 -93 -27 -22 -4 29 -17 58 -34 77 l-27 31 -7 -40 c-13 -75 -15 -78 -36 -59
-11 10 -22 31 -26 49 -16 75 -63 115 -79 67 -11 -35 -34 -33 -56 4 -12 19 -25
35 -30 35 -8 0 -10 -10 -13 -82 -2 -33 -23 -59 -30 -37 -2 8 -7 42 -9 76 -3
34 -8 66 -12 72 -3 6 -24 11 -46 11 -36 0 -41 -3 -51 -30 -12 -34 -31 -35 -36
-2 -3 21 -65 72 -88 72 -6 0 -21 -11 -34 -25 -31 -33 -37 -32 -44 10 -8 38
-30 55 -73 55 -37 0 -50 -10 -58 -43 -9 -34 -29 -30 -33 6 -5 38 -41 59 -93
55 -46 -3 -52 -10 -80 -86 -14 -39 -29 -26 -29 26 0 52 -16 72 -55 72 -35 0
-37 -3 -47 -63 -5 -31 -23 -20 -32 20 -4 21 -10 44 -12 51 -3 9 -21 12 -61 10
l-58 -3 -2 -89 c0 -48 -6 -93 -11 -98 -12 -12 -18 4 -32 97 -16 99 -59 138
-90 80 -16 -29 -27 -32 -34 -7 -3 9 -15 23 -27 30 -28 18 -49 0 -49 -42 -1
-71 -36 -73 -42 -1 -4 46 -37 72 -80 62 -20 -5 -27 -16 -34 -49 -11 -52 -25
-55 -36 -8 -12 44 -32 60 -79 60 -43 0 -51 -9 -59 -65 -5 -42 -23 -54 -28 -20
-8 54 -13 64 -43 74 -33 11 -49 12 -84 4z m35 -243 c0 -16 -18 -86 -40 -155
-57 -180 -62 -169 69 -160 65 4 111 3 114 -2 9 -14 -14 -80 -32 -97 -12 -11
-62 -16 -188 -22 -156 -6 -173 -5 -179 10 -10 25 134 424 160 441 11 8 37 15
58 15 35 0 38 -2 38 -30z m-274 -1 c20 -16 17 -33 -10 -58 -18 -17 -42 -24
-112 -31 -49 -5 -94 -10 -101 -10 -6 0 -19 -7 -28 -16 -25 -26 -2 -41 70 -46
88 -5 97 -17 58 -70 -27 -38 -36 -43 -70 -43 -88 -2 -104 -5 -130 -31 -26 -26
-26 -27 -7 -41 15 -11 37 -13 101 -8 53 4 95 3 117 -5 33 -11 34 -12 24 -41
-6 -17 -20 -36 -32 -44 -23 -14 -373 -68 -387 -59 -5 3 -9 11 -9 18 0 28 143
462 157 478 12 14 37 18 122 21 136 5 220 0 237 -14z m748 15 c23 -9 21 -26
-29 -174 -25 -74 -45 -142 -45 -151 0 -22 14 -27 105 -35 101 -9 128 -37 89
-92 -13 -19 -24 -22 -88 -22 -40 0 -121 3 -179 7 -91 5 -107 9 -107 23 0 14
63 188 138 380 22 57 68 82 116 64z m-1311 -72 c10 -11 17 -31 15 -44 -3 -22
-8 -23 -88 -28 -103 -6 -141 -26 -187 -94 -60 -88 -39 -170 49 -194 20 -5 47
-7 62 -5 14 3 42 2 61 -1 33 -7 35 -9 35 -47 0 -37 -3 -41 -37 -56 -21 -9 -72
-18 -114 -21 -66 -4 -82 -1 -132 22 -83 40 -102 72 -101 171 0 67 5 89 27 133
53 102 147 168 277 195 71 14 98 8 133 -31z m1938 14 c70 -11 129 -36 129 -54
0 -4 -16 -18 -35 -31 -31 -21 -41 -22 -104 -16 -52 5 -76 3 -97 -8 l-27 -14
26 -17 c16 -11 55 -19 104 -23 115 -8 149 -39 105 -93 -18 -22 -25 -23 -143
-21 -112 2 -127 0 -143 -17 -16 -19 -16 -21 8 -39 16 -13 48 -22 90 -26 36 -3
77 -14 91 -23 l26 -17 -34 -34 -34 -34 -79 10 c-43 5 -111 13 -151 16 -117 11
-115 0 -34 230 39 111 78 205 88 212 21 16 114 16 214 -1z m-2965 -30 c9 -24
-25 -83 -54 -94 -15 -6 -64 -17 -110 -25 -96 -18 -152 -52 -152 -93 0 -34 21
-39 97 -25 73 13 93 6 93 -36 0 -42 -47 -78 -120 -92 -130 -26 -154 -47 -171
-152 -7 -46 -7 -69 1 -85 l12 -21 146 38 147 38 3 -39 c4 -51 -21 -98 -61
-115 -40 -16 -480 -125 -507 -125 -14 0 -20 7 -20 23 0 45 13 68 45 81 47 20
83 73 101 152 20 84 35 143 65 254 26 99 23 120 -20 120 -30 0 -101 28 -101
40 0 4 10 16 23 28 18 17 81 35 258 76 129 30 243 56 254 59 40 9 66 7 71 -7z
m522 -32 c2 -14 -24 -56 -77 -125 -45 -56 -81 -112 -81 -122 0 -11 19 -43 43
-71 88 -104 93 -119 46 -135 -54 -19 -79 -13 -129 29 -26 22 -55 40 -63 40 -9
0 -35 -26 -59 -57 -57 -75 -99 -103 -154 -103 -24 0 -44 4 -44 8 0 9 78 123
137 200 42 55 42 83 -1 135 -44 55 -56 80 -56 116 0 26 5 32 39 42 22 6 46 9
55 6 17 -7 56 -77 56 -102 0 -26 14 -17 91 61 79 82 116 105 164 101 22 -1 31
-8 33 -23z m2839 -21 c36 -17 63 -61 63 -103 0 -11 7 -37 15 -57 13 -31 17
-34 32 -22 9 8 29 42 44 77 28 62 28 62 70 62 41 0 79 -21 79 -43 0 -18 -132
-321 -147 -339 -27 -30 -68 -41 -99 -26 -23 11 -32 30 -59 113 -17 56 -35 106
-39 113 -14 23 -42 -6 -59 -62 -22 -69 -60 -116 -94 -116 -36 0 -63 18 -63 41
0 27 146 361 163 371 20 13 56 9 94 -9z m528 -118 c39 -13 109 -35 157 -49 48
-15 100 -37 115 -50 l28 -24 -29 -31 c-27 -28 -36 -31 -90 -31 -34 0 -67 -4
-75 -9 -7 -5 -37 -53 -65 -107 -63 -118 -86 -137 -140 -112 l-35 17 54 113
c73 151 72 165 -12 187 -53 14 -76 36 -68 65 9 31 54 68 74 61 9 -4 48 -17 86
-30z m-4499 -194 c-13 -186 -37 -202 -37 -25 0 66 4 110 11 120 25 29 33 2 26
-95z m5190 -35 c-4 -33 -10 -72 -13 -84 -10 -44 -24 0 -18 58 9 82 14 102 26
94 8 -4 9 -28 5 -68z m-355 -145 c-5 -65 -14 -118 -21 -125 -10 -9 -11 15 -7
112 6 124 12 151 28 135 5 -5 5 -56 0 -122z m-121 80 c0 -39 -21 -225 -27
-234 -21 -35 -20 138 2 231 7 27 25 29 25 3z m-5340 -35 c0 -3 -4 -8 -10 -11
-5 -3 -10 -1 -10 4 0 6 5 11 10 11 6 0 10 -2 10 -4z m2260 -72 c84 -19 132
-52 159 -106 44 -91 16 -205 -64 -260 -83 -58 -235 -69 -350 -27 -138 51 -185
196 -98 300 31 36 67 56 158 85 85 27 111 28 195 8z m1798 -6 c7 -7 12 -22 12
-34 0 -40 -20 -45 -142 -38 -106 6 -114 5 -131 -14 -18 -20 -18 -21 12 -36 17
-9 55 -16 87 -16 40 0 63 -5 76 -17 18 -16 18 -17 -4 -40 -18 -20 -31 -23 -89
-23 -58 0 -71 -3 -89 -22 -35 -38 -6 -48 139 -48 142 -1 168 -10 157 -55 -4
-15 -17 -30 -32 -35 -38 -15 -377 -13 -392 2 -18 18 -17 328 2 354 15 19 38
22 332 32 28 1 55 -3 62 -10z m556 -18 c11 -11 16 -25 13 -34 -5 -13 -25 -16
-115 -16 -102 0 -110 -1 -132 -25 l-23 -24 27 -11 c15 -5 63 -10 106 -10 62 0
83 -4 101 -19 18 -15 21 -22 12 -31 -15 -16 -84 -29 -159 -30 -44 0 -68 -5
-84 -18 -21 -17 -21 -18 -3 -35 15 -13 47 -18 152 -23 101 -6 138 -11 153 -24
18 -14 19 -19 7 -38 -13 -21 -21 -22 -144 -22 -71 0 -160 -3 -196 -6 -60 -6
-69 -4 -89 16 -21 21 -22 27 -18 187 3 151 5 166 23 179 31 24 342 9 369 -16z
m-2840 -1 c54 -42 18 -89 -69 -89 -65 0 -162 -18 -197 -36 -58 -30 -43 -96 32
-134 32 -16 59 -20 143 -20 115 0 127 -6 127 -57 0 -27 -5 -35 -26 -43 -70
-27 -313 -1 -396 41 -21 11 -48 34 -58 52 -39 63 -16 181 43 220 13 8 44 21
68 27 33 9 236 49 300 59 4 1 18 -8 33 -20z m1714 -1 l34 -21 -23 -18 c-19
-15 -43 -19 -116 -19 -66 0 -103 -5 -128 -17 -19 -9 -35 -20 -35 -23 0 -15 75
-40 123 -40 35 0 60 -6 75 -19 l24 -18 -32 -26 c-28 -24 -40 -27 -103 -27 -40
0 -79 -4 -87 -10 -8 -5 -17 -31 -20 -62 l-5 -53 -42 -3 c-63 -5 -67 10 -60
196 4 91 11 160 18 168 9 11 49 14 177 14 151 0 167 -2 200 -22z m-494 -10
c21 -30 20 -55 -3 -68 -11 -5 -80 -10 -153 -10 -108 0 -138 -3 -157 -17 -23
-15 -23 -17 -6 -30 12 -8 48 -13 100 -13 69 0 85 -3 100 -20 18 -20 18 -21 -5
-45 -21 -23 -31 -25 -104 -25 -45 0 -88 -5 -96 -10 -8 -5 -21 -31 -30 -57 -15
-48 -15 -48 -60 -48 l-45 0 -3 110 c-5 163 4 234 31 245 12 5 111 9 219 9 192
1 197 1 212 -21z"/>
<path d="M6024 5861 c-107 -48 -97 -140 20 -195 47 -22 59 -24 113 -16 77 11
101 24 118 64 25 60 -10 129 -78 155 -44 17 -127 13 -173 -8z"/>
<path d="M4875 6735 c-39 -17 -11 -18 35 0 23 9 28 14 15 14 -11 0 -33 -6 -50
-14z"/>
<path d="M4670 6695 c-25 -8 -135 -38 -245 -66 -404 -104 -666 -240 -913 -473
-281 -266 -397 -595 -438 -1243 -6 -103 10 -565 22 -623 11 -51 21 6 28 155
23 524 143 1058 313 1400 72 145 207 348 274 411 88 82 333 217 524 289 55 20
188 62 295 92 107 30 199 59 205 64 13 13 -12 10 -65 -6z"/>
<path d="M10348 6479 c-274 -35 -480 -268 -453 -515 13 -124 74 -205 204 -272
117 -61 113 -61 173 -4 72 68 145 112 184 112 18 0 70 -14 116 -31 156 -59
218 -159 218 -351 0 -176 -35 -258 -258 -598 -185 -283 -201 -305 -214 -292
-6 6 -16 142 -24 303 -14 297 -27 482 -45 619 -7 57 -15 80 -32 98 l-24 23
-16 -24 c-15 -24 -15 -41 9 -249 29 -256 42 -488 27 -473 -6 6 -31 169 -56
363 -28 213 -53 364 -62 382 -12 23 -22 30 -44 30 -16 0 -34 -7 -41 -15 -28
-34 -46 -15 -125 134 -28 53 -46 77 -61 79 -12 2 -104 -31 -205 -72 -420 -170
-799 -273 -1203 -326 -510 -67 -1091 -103 -1656 -102 -313 0 -449 5 -820 31
-245 17 -546 40 -670 51 -658 61 -1310 239 -1539 420 -29 23 -72 71 -94 106
-41 64 -56 75 -75 52 -22 -28 -122 -270 -161 -391 -124 -382 -194 -875 -208
-1457 -5 -213 -2 -288 22 -570 15 -179 26 -349 25 -377 -1 -29 -2 -72 -3 -95
-3 -82 23 -285 43 -343 14 -42 18 -72 14 -104 -5 -43 -4 -47 25 -64 51 -30 56
-4 31 170 -16 113 -23 245 -32 564 -6 229 -7 434 -3 455 l7 39 15 -28 c10 -20
22 -127 39 -355 41 -538 39 -521 62 -544 l21 -21 12 26 c9 20 9 57 0 159 -18
213 -26 564 -13 572 16 10 20 -19 26 -174 7 -224 45 -582 63 -602 16 -18 68
-25 77 -10 2 4 0 112 -6 241 -7 153 -7 236 0 243 10 10 13 -16 32 -302 21
-316 31 -416 44 -475 8 -33 20 -116 26 -185 10 -105 15 -130 35 -156 22 -29
23 -34 11 -69 -23 -67 13 -135 71 -135 24 0 25 2 19 42 -3 24 -10 90 -15 148
-6 58 -17 150 -26 205 -8 55 -15 125 -15 155 0 30 -5 121 -12 202 -11 137 -8
180 11 150 4 -7 15 -122 25 -255 23 -312 38 -421 65 -458 25 -34 26 -42 5 -60
-12 -10 -14 -23 -10 -53 3 -23 9 -68 12 -101 l6 -60 -29 34 c-22 26 -34 32
-50 27 -30 -10 -36 -36 -28 -127 9 -105 30 -133 92 -126 33 3 49 0 66 -13 19
-16 20 -19 6 -25 -8 -3 -28 -1 -43 5 -39 14 -67 12 -88 -7 -17 -15 -20 -15
-39 5 -43 46 -101 11 -85 -52 9 -35 36 -48 75 -35 24 8 40 7 73 -5 82 -31 921
-114 1413 -140 1244 -67 1971 -72 3060 -21 427 20 578 31 845 60 124 14 272
27 330 31 58 3 119 10 135 16 17 5 61 13 99 18 37 4 74 14 82 22 15 14 74 242
74 283 0 31 -8 35 -49 21 -31 -10 -36 -18 -66 -106 -46 -134 -54 -152 -64
-145 -10 6 -10 7 43 176 39 126 44 164 21 173 -22 8 -62 -10 -78 -36 -8 -13
-25 -66 -37 -118 -25 -103 -72 -220 -89 -220 -15 0 -14 37 4 96 55 188 88 327
89 374 1 35 8 66 18 82 30 46 76 221 117 450 57 313 78 443 86 514 8 64 19 94
31 81 16 -15 -56 -529 -122 -880 -28 -146 -25 -171 17 -160 24 7 31 24 59 136
12 45 29 102 39 127 18 42 72 326 87 453 6 56 17 77 28 58 13 -21 -16 -251
-45 -360 -24 -90 -29 -119 -20 -138 13 -28 22 -29 51 -5 27 22 53 126 75 300
8 70 26 197 40 282 13 85 31 223 40 305 8 83 22 206 30 275 10 79 14 154 10
203 -7 84 -30 186 -46 201 -5 6 -9 43 -9 84 0 60 3 73 14 69 16 -6 46 47 46
81 0 27 35 90 147 263 93 144 133 191 133 153 0 -9 -31 -66 -69 -128 -160
-258 -193 -338 -194 -476 -1 -83 3 -103 27 -160 42 -98 43 -113 9 -144 l-30
-27 -6 -157 c-4 -86 -15 -223 -26 -303 -10 -81 -16 -158 -14 -173 3 -14 -7
-73 -22 -131 -25 -100 -26 -107 -11 -156 14 -48 13 -54 -4 -78 -10 -14 -21
-48 -24 -76 -4 -27 -21 -112 -38 -187 -16 -76 -28 -145 -24 -153 7 -18 45 -19
68 -1 28 21 38 59 26 105 -9 36 -7 49 15 99 30 68 57 222 92 536 18 155 32
237 42 253 15 23 15 31 -2 101 -26 108 -24 246 5 337 40 125 82 194 237 380
177 215 457 566 592 745 231 306 284 448 285 760 1 148 -2 173 -23 237 -13 40
-42 100 -65 132 -22 33 -60 87 -84 121 -113 159 -334 325 -487 364 -120 30
-320 47 -417 35z m642 -209 c0 -5 -2 -10 -4 -10 -3 0 -8 5 -11 10 -3 6 -1 10
4 10 6 0 11 -4 11 -10z m-890 -48 c0 -10 -11 -52 -25 -92 -14 -40 -25 -87 -25
-104 0 -36 34 -96 54 -96 8 0 35 20 62 45 26 25 77 60 112 77 161 79 416 28
553 -112 54 -55 88 -114 75 -127 -4 -4 -42 31 -85 78 -89 96 -150 132 -250
148 -68 11 -139 2 -195 -24 -80 -38 -152 -127 -139 -174 6 -25 5 -25 48 -7 49
21 45 3 -14 -55 -53 -54 -78 -60 -126 -31 -80 49 -128 125 -145 228 -8 50 -6
64 25 151 31 88 46 112 68 113 4 0 7 -8 7 -18z m1059 -108 c94 -118 115 -154
91 -154 -11 0 -220 257 -220 271 0 30 40 -6 129 -117z m-754 46 c-3 -5 -13
-10 -21 -10 -8 0 -14 5 -14 10 0 6 9 10 21 10 11 0 17 -4 14 -10z m110 -249
c-14 -12 -65 -23 -65 -13 0 16 13 22 44 22 17 0 26 -4 21 -9z m373 -495 c3
-44 -2 -75 -29 -153 -32 -94 -59 -147 -59 -113 0 8 14 62 31 120 17 60 29 124
28 150 -3 68 -1 76 13 62 6 -6 13 -36 16 -66z m-7439 -301 c-34 -173 -66 -315
-70 -315 -14 0 -13 8 51 325 62 310 69 339 77 318 2 -7 -24 -154 -58 -328z
m7571 -21 c0 -4 -218 -380 -257 -442 -8 -13 -17 -22 -19 -19 -3 2 24 53 59
113 35 60 94 164 131 232 37 67 72 122 77 122 5 0 9 -3 9 -6z m-185 -149 c-31
-58 -61 -105 -66 -105 -13 0 -12 5 17 63 60 119 99 182 102 165 2 -10 -22 -65
-53 -123z m-96 51 c-7 -14 -16 -26 -21 -26 -12 0 -10 8 8 36 21 31 29 25 13
-10z m-7359 -266 c0 -5 -5 -10 -11 -10 -5 0 -7 5 -4 10 3 6 8 10 11 10 2 0 4
-4 4 -10z m6847 -132 c-2 -13 -4 -5 -4 17 -1 22 1 32 4 23 2 -10 2 -28 0 -40z
m393 18 c0 -3 -4 -8 -10 -11 -5 -3 -10 -1 -10 4 0 6 5 11 10 11 6 0 10 -2 10
-4z m66 -68 c-25 -42 -46 -60 -46 -39 0 10 58 81 67 81 2 0 -7 -19 -21 -42z
m-136 -22 c0 -8 -24 -53 -54 -100 -99 -158 -148 -310 -145 -447 3 -112 -24
-106 -37 8 -15 147 41 310 168 484 48 67 68 83 68 55z m60 -97 c0 -12 -100
-287 -121 -333 -7 -14 -16 -26 -20 -26 -40 0 12 197 84 318 29 48 57 68 57 41z
m-502 -974 c-4 -119 -8 -127 -47 -112 -23 8 -42 6 -98 -11 -263 -83 -372 -101
-1398 -233 -338 -43 -742 -78 -1305 -114 -277 -18 -1240 -21 -1240 -5 0 6 10
10 23 11 12 0 110 2 217 4 288 6 653 24 840 41 328 29 1449 183 1679 230 206
42 1121 273 1186 299 55 22 61 22 73 7 6 -9 12 -28 12 -44 0 -43 14 -33 35 25
24 65 29 46 23 -98z m-6176 58 c-9 -14 -10 -14 -16 5 -9 29 3 51 16 28 5 -10
5 -23 0 -33z m2 -105 c3 -18 7 -170 10 -338 5 -303 35 -682 70 -885 14 -81 12
-109 -8 -102 -27 9 -36 68 -56 372 -11 176 -27 410 -35 520 -15 207 -19 403
-9 443 9 32 22 27 28 -10z m6146 -164 c0 -49 -29 -234 -39 -253 -8 -13 -11
-11 -17 13 -8 34 12 241 27 268 14 27 29 13 29 -28z m-5996 -84 c-6 -34 -6
-35 -16 -10 -5 14 -6 41 -2 60 6 34 6 35 16 10 5 -14 6 -41 2 -60z m31 -445
c14 -170 33 -390 42 -488 8 -97 12 -190 8 -205 l-7 -27 -13 25 c-27 52 -61
405 -70 730 -3 107 -8 212 -11 232 -3 20 -2 47 2 60 7 22 7 22 15 3 4 -11 19
-159 34 -330z m5655 325 c0 -5 -4 -10 -10 -10 -5 0 -10 5 -10 10 0 6 5 10 10
10 6 0 10 -4 10 -10z m-27 -159 c2 -11 -8 -86 -24 -168 -16 -81 -33 -182 -39
-223 -6 -41 -24 -122 -40 -179 -20 -69 -30 -126 -30 -170 0 -61 -3 -70 -30
-96 -26 -25 -30 -26 -36 -10 -7 18 1 63 97 530 56 274 73 335 90 335 3 0 9 -9
12 -19z m-157 -14 c-3 -13 -8 -49 -12 -80 -4 -32 -11 -60 -17 -64 -6 -4 -7 16
-3 58 9 83 16 109 28 109 6 0 8 -10 4 -23z m-5312 -397 c4 -58 20 -226 37
-373 17 -148 28 -271 25 -274 -9 -9 -13 13 -40 207 -29 205 -46 396 -45 510 0
104 15 61 23 -70z m5276 136 c0 -3 -4 -8 -10 -11 -5 -3 -10 -1 -10 4 0 6 5 11
10 11 6 0 10 -2 10 -4z m-300 -83 c0 -10 -5 -25 -10 -33 -7 -11 -10 -7 -10 18
0 17 5 32 10 32 6 0 10 -8 10 -17z m132 -79 c-14 -25 -22 5 -9 36 10 25 11 25
14 3 3 -12 0 -30 -5 -39z m-323 -68 c-9 -8 -10 0 -5 38 3 27 7 56 8 65 1 9 3
-8 5 -38 3 -33 0 -58 -8 -65z m461 87 c0 -29 -42 -229 -51 -244 -4 -7 -11 -10
-14 -7 -9 9 46 268 57 268 4 0 8 -8 8 -17z m-309 -150 c-8 -15 -10 -15 -11 -2
0 17 10 32 18 25 2 -3 -1 -13 -7 -23z m130 -66 c-8 -8 -11 -5 -11 9 0 27 14
41 18 19 2 -9 -1 -22 -7 -28z m114 -176 c6 -11 -33 -36 -42 -27 -3 3 -3 12 0
21 7 17 33 20 42 6z m-285 -22 c0 -5 -4 -9 -10 -9 -5 0 -10 7 -10 16 0 8 5 12
10 9 6 -3 10 -10 10 -16z m140 1 c0 -5 -7 -10 -16 -10 -8 0 -12 5 -9 10 3 6
10 10 16 10 5 0 9 -4 9 -10z m-4811 -95 c0 -18 -1 -17 -14 5 -8 14 -14 36 -14
50 1 24 1 24 14 -5 8 -16 14 -39 14 -50z m-462 -5 c7 -19 8 -32 1 -36 -13 -8
-17 -3 -24 34 -8 40 8 42 23 2z m5512 -23 c-1 -34 -34 -120 -47 -125 -22 -7
-10 71 20 135 13 27 28 21 27 -10z m-5599 -149 c0 -17 -40 -7 -50 12 -17 33
-1 44 26 19 13 -12 24 -26 24 -31z m5540 -44 c0 -15 -22 -44 -31 -39 -11 7 7
45 21 45 6 0 10 -3 10 -6z m-5353 -80 c-3 -3 -12 -4 -19 -1 -8 3 -5 6 6 6 11
1 17 -2 13 -5z m251 -13 c10 -6 10 -10 -2 -20 -17 -14 -36 -7 -36 15 0 15 18
18 38 5z"/>
<path d="M3691 6097 c-14 -36 -13 -64 3 -102 l12 -30 10 40 c7 28 7 52 -2 80
l-12 40 -11 -28z"/>
<path d="M3004 3561 c-33 -16 -200 -81 -370 -146 -345 -131 -675 -273 -689
-295 -6 -10 109 28 356 118 185 67 350 113 603 167 93 20 178 40 188 46 27 14
26 114 -1 129 -24 12 -15 14 -87 -19z"/>
<path d="M3051 3380 c-25 -34 -23 -53 7 -69 28 -15 57 8 49 40 -3 13 -12 32
-19 42 -13 17 -15 16 -37 -13z"/>
<path d="M2924 3338 c-16 -12 -31 -23 -33 -25 -3 -2 6 -14 19 -28 l24 -25 23
27 c26 33 28 46 9 62 -10 8 -20 6 -42 -11z"/>
<path d="M2742 3290 c-37 -23 -39 -31 -12 -55 20 -18 21 -18 51 11 29 29 29
31 11 47 -17 15 -20 15 -50 -3z"/>
<path d="M3073 3268 c-30 -38 -35 -59 -17 -79 22 -24 36 -24 59 1 17 19 18 22
2 55 -18 37 -29 43 -44 23z"/>
<path d="M2555 3244 c-56 -20 -63 -30 -40 -54 20 -19 21 -19 70 3 51 22 65 33
65 55 0 16 -45 14 -95 -4z"/>
<path d="M2915 3210 c-15 -17 -16 -24 -7 -45 14 -29 22 -31 65 -9 44 23 43 21
17 49 -28 30 -51 32 -75 5z"/>
<path d="M2366 3178 l-40 -20 28 -15 c26 -14 31 -13 55 5 55 41 22 65 -43 30z"/>
<path d="M2742 3177 l-31 -23 22 -32 c12 -17 25 -32 29 -32 11 0 58 61 58 75
0 12 -28 35 -42 35 -2 0 -18 -10 -36 -23z"/>
<path d="M10370 3166 c-17 -22 -8 -57 21 -79 21 -15 31 -17 47 -8 29 16 36 46
16 76 -19 28 -64 34 -84 11z"/>
<path d="M10519 3151 c-17 -14 -20 -24 -15 -48 4 -18 14 -37 22 -43 12 -11 10
-17 -11 -42 -28 -33 -47 -93 -49 -158 -1 -42 1 -45 26 -48 35 -4 49 24 77 153
33 151 35 164 22 179 -19 22 -49 25 -72 7z"/>
<path d="M2238 3139 c-44 -23 -55 -37 -34 -45 20 -8 55 1 81 20 18 13 18 16 5
30 -13 13 -19 12 -52 -5z"/>
<path d="M2563 3148 c-33 -16 -35 -45 -5 -73 l27 -25 39 39 c34 34 38 42 27
55 -15 18 -55 20 -88 4z"/>
<path d="M10668 3123 c-28 -33 -30 -44 -12 -64 21 -23 37 -24 69 -3 29 19 32
51 8 70 -25 18 -47 17 -65 -3z"/>
<path d="M3076 3114 c-20 -20 -20 -53 0 -75 14 -15 14 -21 0 -53 -11 -26 -12
-44 -5 -71 8 -30 14 -35 38 -35 21 0 30 6 35 23 9 34 7 93 -4 123 -7 18 -7 29
-1 34 12 7 -23 70 -38 70 -5 0 -17 -7 -25 -16z"/>
<path d="M10803 3103 c-26 -23 -46 -132 -32 -172 11 -33 40 -45 64 -27 15 11
41 92 46 146 7 64 -34 92 -78 53z"/>
<path d="M2393 3079 c-38 -24 -40 -30 -15 -52 16 -14 20 -13 52 13 29 24 32
30 21 44 -17 20 -19 20 -58 -5z"/>
<path d="M2932 3084 c-27 -18 -28 -41 -3 -73 l19 -25 26 30 c30 35 32 46 8 67
-23 21 -22 21 -50 1z"/>
<path d="M10937 3083 c-18 -20 -47 -126 -47 -171 0 -16 -9 -50 -21 -76 -15
-35 -18 -54 -12 -73 7 -21 3 -39 -18 -84 -15 -31 -35 -82 -44 -112 -16 -54
-41 -79 -56 -56 -7 12 0 38 40 136 12 32 18 64 15 81 -4 19 -1 32 10 41 10 9
16 29 16 57 0 35 -4 44 -22 50 -31 9 -68 -35 -68 -82 0 -19 -9 -47 -19 -62
-10 -15 -22 -49 -25 -76 -3 -27 -15 -63 -25 -80 -11 -17 -25 -60 -31 -96 -7
-36 -16 -69 -21 -74 -4 -5 -31 -8 -58 -7 -57 2 -86 -18 -96 -66 -12 -59 -27
-109 -37 -120 -22 -27 -25 0 -8 66 10 38 15 81 12 96 -5 27 -6 27 -68 23 -41
-2 -70 -10 -82 -21 -26 -24 -41 -79 -43 -160 -1 -50 -7 -74 -19 -85 -28 -28
-31 -60 -7 -77 12 -8 30 -15 40 -15 10 0 15 -4 12 -10 -3 -5 -22 -10 -42 -10
-22 0 -41 -7 -49 -17 -17 -23 -17 -28 2 -47 11 -12 36 -16 96 -16 59 0 79 -3
76 -12 -3 -9 -33 -14 -93 -16 -107 -3 -130 -17 -120 -70 5 -28 -2 -50 -39
-122 -25 -48 -46 -99 -46 -112 l0 -24 113 4 c77 3 161 14 272 38 88 20 337 71
553 115 256 52 434 93 510 119 178 60 628 246 707 292 81 48 223 185 249 241
9 20 20 60 23 87 5 42 8 48 20 38 45 -37 58 -154 25 -220 -20 -38 -111 -127
-196 -192 -66 -49 -146 -89 -331 -164 -314 -127 -560 -202 -974 -297 -447
-102 -664 -141 -1106 -196 -143 -17 -270 -36 -282 -40 -14 -5 -23 -17 -23 -28
0 -11 -10 -26 -22 -32 -22 -12 -25 -10 -54 37 -9 16 -28 15 -330 -14 -569 -57
-933 -77 -1614 -93 -632 -14 -1455 -7 -1785 15 -132 9 -422 30 -645 46 -223
16 -502 34 -620 40 -118 6 -280 17 -360 26 -189 19 -766 100 -852 119 -37 8
-92 15 -123 15 -63 0 -861 163 -1048 215 -257 70 -525 209 -636 330 -148 161
-143 437 10 580 44 42 79 57 79 36 0 -5 -15 -42 -33 -82 -71 -156 -75 -254
-17 -369 52 -104 131 -172 296 -257 77 -40 170 -83 206 -97 90 -34 318 -93
660 -171 289 -65 417 -88 563 -100 109 -10 117 -1 87 93 -11 37 -40 153 -62
257 -42 191 -48 208 -81 226 -15 8 -21 4 -34 -22 -9 -17 -14 -38 -10 -47 8
-22 35 -180 35 -210 0 -17 -5 -23 -17 -20 -12 2 -22 25 -35 73 -34 134 -59
267 -69 373 -8 78 -16 114 -31 135 l-20 28 -24 -22 c-21 -19 -24 -32 -24 -89
0 -37 7 -89 16 -116 18 -56 36 -265 24 -277 -14 -15 -20 9 -50 185 -15 95 -33
184 -38 198 -6 14 -26 40 -46 59 -28 27 -39 32 -55 25 -18 -8 -18 -12 -5 -59
22 -76 22 -80 -6 -80 -22 0 -25 6 -36 59 -16 80 -43 100 -99 74 -32 -14 -40
-46 -26 -103 25 -98 0 -102 -35 -5 -13 36 -31 70 -40 77 -24 18 -65 16 -93 -3
-20 -14 -22 -22 -17 -55 7 -42 -8 -54 -20 -16 -3 12 -13 30 -22 40 -28 32
-122 15 -122 -22 0 -35 -17 -31 -33 7 -23 52 -35 106 -43 189 -5 58 -10 74
-25 78 -10 4 -23 3 -29 0 -5 -3 -15 -3 -21 1 -7 4 2 19 27 39 l38 32 -19 29
c-13 19 -20 46 -20 79 0 48 -1 50 -32 60 -38 11 -40 20 -13 55 11 14 20 28 20
33 0 4 -24 7 -54 7 -47 0 -57 -4 -75 -26 -27 -34 -26 -42 5 -66 23 -19 24 -22
10 -37 -22 -24 -20 -64 4 -86 15 -14 17 -21 9 -32 -8 -8 -9 -29 -4 -56 3 -23
10 -64 14 -92 10 -73 15 -78 73 -70 57 8 59 -4 5 -31 -18 -9 -40 -26 -49 -37
-9 -12 -20 -19 -23 -15 -10 10 -45 148 -45 179 0 14 -12 52 -26 83 -15 33 -24
66 -20 79 3 11 1 26 -3 31 -15 20 -44 130 -42 164 2 30 0 32 -31 32 -23 0
-113 -40 -278 -123 -282 -142 -336 -175 -426 -258 -36 -33 -68 -58 -71 -56
-11 12 53 85 129 146 154 125 372 254 540 320 60 24 107 61 58 46 -14 -4 -71
-25 -128 -47 -314 -122 -663 -360 -759 -518 -56 -92 -65 -208 -23 -294 11 -23
20 -53 20 -67 0 -34 11 -69 21 -69 5 0 9 34 9 75 0 83 13 98 30 33 24 -94 43
-141 91 -220 61 -101 118 -161 229 -240 47 -34 105 -78 130 -98 62 -51 276
-196 384 -259 146 -86 395 -207 686 -334 492 -214 533 -229 766 -268 67 -11
180 -35 250 -55 303 -81 398 -103 549 -128 88 -15 170 -28 181 -31 12 -3 64
-58 118 -124 143 -177 173 -201 297 -239 292 -89 672 -151 1119 -182 454 -32
1597 -18 2565 30 215 11 507 50 557 75 18 9 87 73 153 141 l120 125 156 43
c85 24 225 60 310 79 170 39 226 56 627 188 364 121 894 335 912 369 6 10 10
32 10 49 0 38 9 39 38 6 29 -34 68 -32 119 5 22 16 109 61 194 100 375 173
683 360 990 602 187 147 221 207 201 357 -18 137 -36 182 -125 313 -70 105
-91 129 -146 165 -86 57 -192 100 -336 136 -105 26 -125 28 -163 18 -58 -15
-59 -15 -74 17 -11 23 -20 28 -68 32 -30 3 -66 13 -80 22 -33 21 -215 69 -235
61 -9 -3 -27 -27 -41 -54 -28 -57 -36 -62 -23 -17 5 18 6 47 3 65 -6 29 -12
35 -58 49 -28 8 -73 18 -101 21 l-50 5 -42 -93 c-24 -52 -68 -168 -99 -259
-87 -254 -116 -320 -146 -320 -18 0 -5 53 56 235 66 196 136 427 136 450 0 16
-22 25 -65 25 -45 0 -55 -18 -103 -189 -41 -144 -62 -184 -88 -174 -21 8 -17
37 16 120 17 41 30 91 30 111 0 20 9 52 20 70 11 18 20 41 20 52 0 44 -62 67
-93 33z m-9037 -168 c-7 -8 -19 -15 -26 -15 -8 0 -23 -15 -34 -32 l-20 -33 26
-20 c23 -19 25 -24 17 -55 -8 -26 -5 -54 8 -110 39 -161 13 -156 -45 8 -47
134 -50 219 -10 251 32 26 104 30 84 6z m9460 -24 c0 -6 -4 -13 -10 -16 -5 -3
-10 1 -10 9 0 9 5 16 10 16 6 0 10 -4 10 -9z m-30 -98 c-1 -10 -7 -31 -15 -48
l-13 -30 -1 41 c-1 22 2 44 6 47 12 13 23 7 23 -10z m-9640 -23 c-24 -15 -37
-11 -16 5 11 8 22 12 25 9 3 -3 -1 -9 -9 -14z m10124 -7 c-9 -35 -13 -43 -25
-43 -13 0 -11 27 3 50 18 29 29 25 22 -7z m-344 -10 c-1 -5 -7 -19 -15 -33
-10 -18 -14 -20 -15 -8 0 23 11 48 21 48 5 0 9 -3 9 -7z m-187 -88 c-20 -42
-36 -46 -27 -7 9 37 13 42 29 42 12 0 12 -6 -2 -35z m-9529 -94 c9 -41 14 -76
11 -79 -2 -3 -7 1 -9 9 -2 8 -14 43 -25 78 -11 35 -18 68 -15 73 11 17 21 -5
38 -81z m9667 56 c-8 -8 -11 -7 -11 4 0 20 13 34 18 19 3 -7 -1 -17 -7 -23z
m-481 -2 c0 -32 -23 -121 -34 -127 -23 -16 -28 -6 -24 47 3 34 12 62 23 75 21
24 35 26 35 5z m-9624 -147 c-31 -253 -11 -325 133 -469 238 -238 630 -408
1186 -514 213 -41 262 -61 120 -50 -213 17 -543 87 -755 160 -225 78 -460 213
-580 334 -91 91 -165 206 -181 278 -11 51 -10 71 9 161 20 101 41 152 64 152
7 0 8 -17 4 -52z m-251 -80 c-20 -62 -41 -89 -32 -43 8 40 37 108 44 102 3 -3
-3 -30 -12 -59z m845 31 c0 -11 -4 -17 -10 -14 -5 3 -10 15 -10 26 0 11 5 17
10 14 6 -3 10 -15 10 -26z m8950 -29 c0 -25 -27 -37 -43 -21 -9 10 -8 16 7 27
27 19 36 18 36 -6z m-115 1 c7 -12 -31 -25 -46 -15 -8 4 -7 9 2 15 18 11 36
11 44 0z m-9575 -68 c1 -222 100 -394 323 -561 201 -150 321 -212 498 -257 72
-18 138 -40 147 -49 15 -15 15 -16 -3 -16 -45 0 -469 147 -570 197 -156 79
-318 230 -379 354 -46 95 -70 203 -62 287 13 123 46 156 46 45z m11446 -46
c-20 -105 -114 -228 -242 -314 -110 -75 -343 -185 -554 -263 -114 -41 -349
-110 -379 -110 -49 0 41 39 264 114 302 102 382 135 504 210 207 126 316 226
346 317 10 29 24 67 32 83 14 26 16 28 25 12 5 -10 7 -32 4 -49z m-2268 -6
c11 -7 10 -10 -3 -15 -20 -7 -38 1 -30 15 7 11 16 11 33 0z m237 -10 c6 -11
-33 -36 -42 -27 -3 3 -3 12 0 21 7 17 33 20 42 6z m-7726 -83 c1 -10 -3 -18
-8 -18 -10 0 -20 67 -12 76 6 6 18 -30 20 -58z m9826 11 c10 -29 -29 -125 -73
-184 -48 -64 -146 -137 -278 -209 -130 -71 -172 -71 -61 0 221 140 282 199
355 341 20 40 40 73 44 73 4 0 10 -9 13 -21z m-2378 -57 c-8 -8 -20 -11 -27
-7 -16 10 7 35 27 28 13 -5 13 -7 0 -21z m88 8 c3 -5 2 -17 -3 -26 -8 -14 -10
-14 -21 0 -13 15 -8 36 9 36 5 0 12 -4 15 -10z m125 -24 c-15 -15 -33 4 -19
20 10 12 14 12 20 2 5 -7 4 -17 -1 -22z m-170 -121 c0 -8 -4 -15 -10 -15 -5 0
-10 7 -10 15 0 8 5 15 10 15 6 0 10 -7 10 -15z m-140 -194 c0 -12 -28 -22 -34
-12 -3 5 -3 11 1 15 9 9 33 7 33 -3z m-30 -90 c0 -10 -30 -24 -37 -17 -3 3 -2
9 2 15 8 13 35 15 35 2z m1200 -130 c0 -10 -24 -21 -43 -21 -7 0 -3 7 7 15 22
17 36 19 36 6z m-9074 -157 c67 -19 73 -39 9 -30 -53 7 -88 23 -80 37 8 12 7
12 71 -7z m355 -85 c14 -23 -33 -22 -139 1 -101 23 -126 35 -104 49 18 11 232
-33 243 -50z m-456 -9 c116 -34 250 -69 298 -79 92 -20 123 -35 98 -50 -33
-21 -597 133 -641 175 -27 26 29 16 245 -46z m928 27 c40 -19 120 -72 181
-120 60 -48 113 -87 117 -87 14 0 18 14 23 78 6 75 9 82 47 82 57 0 65 -21 67
-178 3 -142 -5 -182 -35 -182 -35 0 -130 57 -230 138 -137 111 -128 105 -153
92 -15 -8 -20 -21 -20 -53 0 -23 -7 -53 -16 -65 -15 -22 -16 -22 -44 -6 -32
19 -37 46 -42 217 -2 78 0 100 12 107 20 13 11 15 93 -23z m-281 -48 c12 -6
17 -14 11 -20 -13 -13 -124 10 -143 29 -13 13 -8 14 48 8 35 -3 72 -11 84 -17z
m7643 10 c51 -15 102 -65 110 -113 27 -139 -170 -270 -439 -292 -111 -9 -116
-2 -116 151 1 132 11 190 38 217 36 37 316 62 407 37z m-6455 -90 c102 -11
191 -25 198 -31 16 -14 15 -63 -1 -77 -10 -8 -45 -7 -133 4 -139 17 -145 18
-163 6 -29 -19 8 -39 95 -51 54 -8 92 -19 107 -31 l22 -19 -24 -21 c-21 -17
-32 -19 -80 -12 -67 9 -118 9 -128 0 -20 -21 33 -39 180 -61 86 -12 163 -29
172 -36 20 -17 19 -54 -2 -75 -20 -20 -25 -20 -288 27 -239 42 -225 28 -225
237 0 172 0 173 55 166 17 -2 113 -14 215 -26z m5769 10 c37 -13 38 -19 8 -47
-18 -17 -47 -25 -119 -35 -90 -13 -148 -35 -148 -57 0 -16 38 -21 107 -15 85
8 123 -4 123 -40 0 -30 -19 -39 -104 -50 -75 -9 -103 -20 -126 -48 -18 -22
-18 -22 13 -33 23 -8 50 -7 106 3 183 33 195 34 206 6 3 -10 -3 -25 -17 -39
-19 -19 -55 -28 -218 -54 l-195 -31 -17 22 c-16 18 -18 44 -18 184 0 181 3
189 63 200 96 18 255 43 278 44 14 1 40 -4 58 -10z m-7104 -39 c3 -6 -5 -10
-19 -10 -14 0 -28 5 -31 10 -3 6 5 10 19 10 14 0 28 -4 31 -10z m1789 -24 c21
-9 39 -27 50 -51 37 -77 127 -205 145 -205 21 0 51 32 116 122 46 64 67 80
127 94 38 8 71 -12 62 -39 -7 -22 -169 -243 -223 -304 -21 -24 -37 -33 -60
-33 -63 0 -88 24 -199 193 -119 183 -134 213 -112 227 21 14 55 12 94 -4z
m4675 -10 l21 -19 -22 -24 c-19 -20 -31 -23 -97 -23 -62 -1 -81 -5 -101 -21
-23 -20 -23 -22 -7 -34 10 -7 48 -16 85 -20 104 -10 137 -22 171 -60 25 -29
31 -45 31 -81 0 -68 -31 -94 -168 -138 l-111 -36 -107 23 c-120 25 -139 39
-114 84 27 47 41 49 133 25 113 -29 136 -28 177 8 l35 30 -30 25 c-20 17 -42
25 -67 25 -73 0 -194 21 -217 39 -81 58 -28 148 118 198 86 31 236 30 270 -1z
m-3767 -61 c174 -8 198 -13 218 -47 12 -22 12 -29 1 -42 -11 -13 -37 -16 -145
-16 -124 -1 -166 -9 -166 -34 0 -17 75 -36 142 -36 40 0 78 -4 84 -8 17 -11
22 -35 13 -59 -8 -22 -13 -23 -122 -23 -91 0 -117 -3 -127 -15 -29 -35 43 -52
263 -59 42 -1 82 -7 88 -13 16 -16 1 -71 -24 -87 -40 -25 -415 8 -446 39 -14
13 -16 45 -15 206 1 209 2 213 59 204 17 -2 96 -7 177 -10z m2963 0 c173 -30
245 -90 245 -204 0 -101 -72 -185 -188 -221 -197 -61 -387 27 -400 184 -5 62
17 118 56 144 14 9 41 32 59 51 32 32 89 60 123 61 8 0 56 -7 105 -15z m-2070
-46 c82 -29 112 -130 56 -187 -31 -31 -59 -44 -128 -62 -48 -12 -60 -25 -43
-45 9 -10 41 -15 113 -17 l102 -3 3 -47 c2 -37 -1 -51 -19 -69 -19 -19 -28
-20 -87 -14 -95 10 -178 39 -247 85 -33 22 -65 40 -72 40 -6 0 -18 -21 -25
-47 l-14 -48 -49 0 -50 0 3 145 c4 225 10 270 35 281 33 14 374 4 422 -12z
m182 15 c-3 -3 -12 -4 -19 -1 -8 3 -5 6 6 6 11 1 17 -2 13 -5z m348 -4 c-3 -5
-13 -10 -21 -10 -8 0 -14 5 -14 10 0 6 9 10 21 10 11 0 17 -4 14 -10z m541
-24 c18 -26 18 -61 -2 -80 -11 -11 -34 -16 -78 -16 -129 0 -222 -34 -262 -96
-16 -24 -16 -27 3 -52 11 -15 40 -38 64 -52 37 -21 56 -25 124 -24 44 0 101 4
126 8 44 8 46 7 58 -22 19 -46 11 -65 -44 -92 -45 -23 -62 -25 -170 -25 -116
0 -123 1 -187 33 -112 55 -152 125 -130 230 29 137 171 215 385 209 84 -2 101
-5 113 -21z m283 10 c8 -9 9 -54 5 -147 -10 -190 -17 -182 152 -177 151 3 159
0 150 -61 -9 -59 -14 -61 -228 -68 l-196 -6 -14 24 c-12 20 -13 54 -6 209 9
211 12 227 36 233 37 10 90 6 101 -7z m-3241 -365 c21 -29 49 -39 163 -56 21
-3 42 -12 49 -19 29 -36 -94 -26 -189 15 -58 25 -84 50 -75 73 9 24 28 20 52
-13z m-158 -21 c0 -5 -4 -10 -10 -10 -5 0 -10 5 -10 10 0 6 5 10 10 10 6 0 10
-4 10 -10z m565 -65 c60 -9 111 -18 114 -20 2 -3 -1 -11 -7 -17 -9 -9 -35 -8
-109 2 -110 14 -147 25 -138 40 8 13 12 13 140 -5z m465 -55 c91 -11 166 -20
168 -20 2 0 0 -4 -3 -10 -9 -14 -69 -12 -215 5 -152 19 -170 23 -170 35 0 14
33 13 220 -10z m3930 0 c0 -5 -4 -10 -10 -10 -5 0 -10 5 -10 10 0 6 5 10 10
10 6 0 10 -4 10 -10z m-3366 -50 c168 -12 190 -30 38 -30 -101 0 -284 14 -339
26 -13 2 -23 9 -23 16 0 11 16 11 324 -12z m3042 4 c-21 -7 -50 -11 -63 -8
-39 10 -7 24 52 23 l50 0 -39 -15z m-186 -14 c0 -11 -43 -19 -125 -22 -67 -3
-87 14 -28 23 62 10 153 10 153 -1z m-2122 -35 c-4 -14 -308 -9 -322 5 -7 7
38 10 157 8 105 -2 166 -7 165 -13z m795 -2 c31 -18 -41 -23 -339 -23 -235 0
-342 3 -357 12 -21 11 -21 11 -2 19 20 9 683 1 698 -8z m924 9 c7 -4 16 -26
21 -47 l8 -40 144 4 c110 2 142 0 134 -9 -6 -6 -35 -13 -65 -16 -96 -10 -468
-29 -479 -26 -21 7 2 22 34 22 59 0 97 12 113 37 15 22 14 25 -3 39 -16 13
-51 14 -229 10 -193 -5 -276 2 -235 18 34 13 538 20 557 8z m-2901 -37 c76 -9
143 -20 148 -25 12 -12 11 -12 -74 -10 -109 2 -230 23 -230 41 0 11 -7 12 156
-6z m539 -50 c117 -7 144 -13 124 -26 -24 -15 -143 -9 -297 17 -51 8 -27 26
27 20 25 -3 91 -8 146 -11z m540 -6 c122 -31 119 -49 -8 -48 -113 1 -192 11
-192 24 0 13 71 33 120 34 22 1 58 -4 80 -10z m-281 -18 c7 -11 -14 -20 -31
-13 -7 2 -10 8 -7 13 7 12 31 12 38 0z m491 -21 c3 -5 -3 -10 -15 -10 -12 0
-18 5 -15 10 3 6 10 10 15 10 5 0 12 -4 15 -10z m701 -3 c23 -23 -38 -27 -326
-24 -291 3 -340 7 -340 29 0 11 655 7 666 -5z m299 3 c3 -5 -3 -10 -15 -10
-12 0 -18 5 -15 10 3 6 10 10 15 10 5 0 12 -4 15 -10z m180 0 c-3 -5 -13 -10
-21 -10 -8 0 -12 5 -9 10 3 6 13 10 21 10 8 0 12 -4 9 -10z"/>
<path d="M10287 1269 c-65 -15 -97 -38 -118 -82 -20 -46 -25 -127 -9 -158 14
-25 34 -24 108 6 182 74 232 156 132 216 -49 30 -57 31 -113 18z"/>
<path d="M8234 991 c-41 -25 -74 -68 -74 -98 0 -38 27 -81 63 -100 44 -23 135
-22 177 3 57 33 84 107 61 167 -18 45 -168 64 -227 28z"/>
<path d="M6008 994 c-28 -15 -43 -48 -36 -81 3 -16 14 -18 102 -17 91 0 100 2
118 24 23 29 20 39 -22 68 -39 26 -120 30 -162 6z"/>
<path d="M2043 3070 c-30 -14 -43 -25 -43 -40 0 -27 45 -27 105 1 52 24 63 38
44 50 -22 13 -60 9 -106 -11z"/>
<path d="M2753 3049 c-18 -12 -33 -24 -33 -27 0 -4 10 -19 23 -34 l22 -28 40
35 40 35 -24 20 c-29 25 -28 25 -68 -1z"/>
<path d="M2241 3027 c-19 -21 -20 -25 -6 -37 13 -11 23 -10 56 6 l41 18 -22
18 c-29 24 -42 23 -69 -5z"/>
<path d="M2589 3015 c-19 -14 -34 -29 -34 -33 1 -13 28 -62 35 -62 3 0 25 16
49 36 l42 37 -22 23 c-28 30 -28 30 -70 -1z"/>
<path d="M10365 3017 c-25 -21 -28 -32 -33 -98 -3 -61 -1 -77 12 -88 13 -11
22 -11 41 -3 28 13 43 59 47 147 3 55 1 60 -18 63 -12 2 -34 -8 -49 -21z"/>
<path d="M10621 2955 c-11 -30 -26 -76 -32 -101 -12 -47 -9 -54 26 -68 6 -2
-4 -19 -22 -37 -32 -34 -54 -83 -66 -146 -5 -28 -2 -35 19 -49 41 -27 67 -8
98 76 14 39 26 81 26 93 0 12 11 69 26 127 31 125 25 160 -25 160 -27 0 -32
-5 -50 -55z"/>
<path d="M2422 2983 c-13 -3 -28 -16 -34 -29 -10 -22 -8 -28 14 -51 l26 -26
41 33 41 34 -22 23 c-12 13 -26 22 -32 22 -6 -1 -21 -4 -34 -6z"/>
<path d="M2925 2956 c-12 -18 -14 -33 -7 -58 11 -45 50 -50 99 -12 l36 27 -36
34 c-43 39 -71 42 -92 9z"/>
<path d="M2777 2948 c-49 -17 -49 -95 -1 -117 25 -11 30 -9 57 18 28 28 29 31
17 61 -16 39 -37 50 -73 38z"/>
<path d="M2250 2911 c-13 -25 -13 -67 1 -131 8 -40 16 -53 35 -60 29 -12 30
-21 3 -38 -15 -10 -19 -21 -17 -50 3 -36 4 -37 45 -40 23 -2 52 2 64 8 23 13
23 31 0 125 -7 28 -20 78 -28 113 -9 35 -22 70 -30 78 -21 20 -60 17 -73 -5z"/>
<path d="M2603 2905 c-42 -18 -42 -41 -2 -91 28 -35 29 -39 13 -51 -23 -17
-21 -55 5 -92 18 -25 26 -29 41 -21 24 13 70 68 70 85 0 22 -29 45 -58 45
l-26 0 27 28 c33 34 37 86 8 102 -25 13 -39 12 -78 -5z"/>
<path d="M2434 2855 c-13 -19 -15 -37 -10 -73 4 -26 8 -66 9 -89 3 -59 24 -79
70 -64 19 7 37 20 39 29 8 27 -9 146 -26 186 -19 45 -57 50 -82 11z"/>
<path d="M2962 2817 c-25 -27 -28 -54 -7 -81 18 -24 40 -15 60 25 16 31 16 32
-7 56 l-24 24 -22 -24z"/>
<path d="M3096 2821 c-14 -15 -15 -24 -6 -40 13 -26 47 -27 79 -2 l23 18 -27
21 c-34 27 -47 27 -69 3z"/>
<path d="M2792 2777 c-28 -30 -28 -38 2 -67 29 -27 49 -22 70 18 13 26 13 31
0 51 -20 27 -45 27 -72 -2z"/>
<path d="M3438 2765 c-24 -32 -23 -37 10 -68 22 -21 31 -24 40 -15 7 7 12 18
12 25 0 16 -32 83 -39 83 -3 0 -14 -11 -23 -25z"/>
<path d="M3546 2764 c-16 -15 -15 -38 5 -92 5 -13 9 -47 9 -75 0 -29 7 -95 15
-147 9 -52 18 -117 21 -145 3 -27 12 -73 20 -102 11 -37 12 -57 5 -70 -23 -44
26 -139 68 -131 35 7 36 52 8 226 -15 92 -34 237 -42 322 -9 85 -18 165 -20
177 -11 48 -58 68 -89 37z"/>
<path d="M10322 2758 c-15 -15 -15 -43 -1 -70 9 -16 7 -24 -10 -42 -26 -28
-28 -73 -3 -80 10 -4 49 -6 85 -5 79 2 90 11 111 94 14 53 14 61 1 82 -15 22
-17 22 -45 8 -22 -12 -30 -23 -30 -43 0 -16 -6 -37 -14 -48 -24 -31 -40 -4
-37 61 2 52 1 55 -21 55 -13 0 -29 -5 -36 -12z"/>
<path d="M3121 2648 c-16 -17 -18 -24 -9 -35 25 -30 45 -33 73 -11 l28 22 -27
23 c-33 28 -40 29 -65 1z"/>
<path d="M2987 2642 c-22 -24 -21 -35 3 -57 19 -17 21 -17 55 6 41 28 42 33
13 53 -29 21 -51 20 -71 -2z"/>
<path d="M2800 2619 c-10 -17 -7 -28 16 -61 l28 -40 28 33 c44 53 33 89 -29
89 -22 0 -36 -6 -43 -21z"/>
<path d="M3457 2612 c-24 -26 -21 -44 11 -75 34 -33 52 -21 52 33 0 56 -31 77
-63 42z"/>
<path d="M2636 2604 c-21 -20 -21 -21 10 -66 l26 -37 35 26 c44 34 58 60 42
79 -16 19 -93 18 -113 -2z"/>
<path d="M2480 2565 l-23 -24 28 -37 27 -36 34 33 c19 18 34 36 34 39 0 14
-42 50 -59 50 -9 0 -28 -11 -41 -25z"/>
<path d="M2324 2550 c-40 -16 -40 -44 -1 -87 l20 -22 44 37 45 36 -26 23 c-29
24 -47 27 -82 13z"/>
<path d="M10324 2523 c-31 -6 -56 -37 -52 -65 3 -20 8 -23 43 -22 53 2 122 11
135 19 17 11 11 54 -9 65 -19 10 -75 11 -117 3z"/>
<path d="M10516 2495 l-29 -27 25 -25 c22 -22 28 -23 46 -12 32 20 34 36 9 65
l-22 26 -29 -27z"/>
<path d="M3146 2491 c-19 -20 -20 -52 -5 -101 5 -19 10 -51 10 -71 0 -27 8
-44 29 -64 l28 -27 12 23 c14 24 9 99 -10 187 -14 61 -38 82 -64 53z"/>
<path d="M3327 2483 c-24 -27 -22 -69 5 -87 30 -22 43 -20 61 7 14 22 13 26
-17 61 -31 37 -32 37 -49 19z"/>
<path d="M3483 2459 c-16 -16 -17 -71 -1 -87 17 -17 42 -15 61 6 15 16 14 20
-16 55 -26 31 -34 36 -44 26z"/>
<path d="M3337 2343 c-13 -12 -7 -62 22 -182 16 -66 37 -168 46 -228 20 -128
44 -183 80 -183 29 0 40 27 24 66 -6 16 -24 102 -40 192 -15 90 -31 168 -35
173 -3 6 -8 33 -10 60 -4 65 -28 109 -58 109 -12 0 -26 -3 -29 -7z"/>
<path d="M9933 2328 c-19 -24 -21 -68 -4 -89 16 -20 17 -19 55 20 39 40 39 41
21 61 -20 22 -57 26 -72 8z"/>
<path d="M3502 2308 c-16 -16 -15 -21 9 -63 l22 -36 23 22 23 22 -26 33 c-28
37 -33 40 -51 22z"/>
<path d="M10077 2210 c-36 -28 -105 -244 -88 -273 10 -15 9 -22 -2 -35 -35
-40 -67 -122 -67 -173 0 -40 -5 -58 -25 -81 -14 -17 -25 -42 -25 -59 0 -29 1
-30 38 -23 20 3 41 10 45 14 5 4 12 34 17 66 4 33 19 84 33 114 44 93 129 390
122 427 -8 42 -17 47 -48 23z"/>
<path d="M9924 2158 c-14 -23 -64 -52 -93 -54 -14 0 -36 -2 -48 -2 -29 -2 -79
-94 -60 -110 14 -12 80 -2 116 17 21 12 23 11 18 -3 -4 -9 -9 -38 -13 -66 -5
-42 -4 -50 9 -50 32 0 66 45 86 114 24 79 26 111 7 145 -11 20 -15 21 -22 9z"/>
<path d="M3530 2145 c-14 -17 -8 -79 11 -101 17 -20 42 -17 57 7 12 18 10 26
-14 60 -34 49 -39 52 -54 34z"/>
<path d="M3560 1955 c-10 -12 -9 -26 5 -73 9 -31 16 -68 16 -82 -2 -35 19 -70
41 -70 27 0 31 21 14 70 -22 64 0 94 38 51 13 -14 16 -28 11 -55 -10 -49 15
-88 53 -84 15 2 26 8 25 14 -1 6 -5 53 -9 104 -6 74 -11 97 -29 118 -21 25
-23 25 -69 12 -35 -10 -50 -10 -59 -1 -15 15 -22 14 -37 -4z"/>
<path d="M3470 1705 c-22 -26 12 -105 45 -105 7 0 20 9 30 20 17 18 16 21 -15
60 -35 44 -42 47 -60 25z"/>
<path d="M3609 1678 c-9 -17 -8 -28 6 -55 34 -62 69 -27 41 41 -17 41 -30 45
-47 14z"/>
</g>
</svg>
