<?xml version="1.0" encoding="UTF-8"?>
<svg version="1.1" xmlns="http://www.w3.org/2000/svg" width="640" height="420">
<path d="M0 0 C211.2 0 422.4 0 640 0 C640 88.11 640 176.22 640 267 C620.2 267 600.4 267 580 267 C581.00819019 264.47952453 582.01722298 261.95907971 583.0703125 259.45703125 C585.84393856 252.50242073 587.55691519 246.16822143 585.33984375 238.80859375 C582.73129663 232.85749274 578.63551906 228.64404872 572.7109375 225.96484375 C563.3690781 222.77674888 554.80374005 223.34685395 545.5078125 226.34375 C543 227 543 227 538 227 C538 220.07 538 213.14 538 206 C474.31 206 410.62 206 345 206 C345.33 208.31 345.66 210.62 346 213 C346.17922266 215.21431489 346.33357004 217.4307634 346.46484375 219.6484375 C346.5417041 220.89351074 346.61856445 222.13858398 346.69775391 223.42138672 C346.77687012 224.7260791 346.85598633 226.03077148 346.9375 227.375 C347.5463835 237.14570965 348.29403915 246.85372984 349.6328125 256.5546875 C350.04407379 260.41354339 350.05966589 264.12171743 350 268 C347.33029713 268.39551154 344.68346773 268.72680624 342 269 C341.28714844 269.07992188 340.57429688 269.15984375 339.83984375 269.2421875 C334.0251411 269.58129537 329.33099827 268.27677076 323.875 266.5 C313.22453239 263.12659109 303.30708371 263.19045418 292.37928963 265.1002264 C278.09940797 267.51485517 263.85776675 267.35881817 249.42411947 267.23231626 C245.56186026 267.20203847 241.69953475 267.1901403 237.83718872 267.17601013 C230.97085609 267.14869625 224.10464806 267.11057312 217.23840332 267.06658936 C206.37857819 266.99788697 195.51872816 266.95732013 184.65875196 266.92120481 C163.83062409 266.85185138 143.0026403 266.76262852 122.17464828 266.66060829 C119.9326757 266.64963071 117.69070309 266.63865647 115.44873047 266.62768555 C114.3360235 266.62223296 113.22331654 266.61678036 112.07689118 266.61116254 C102.87255244 266.56644956 93.66819617 266.52679615 84.46383083 266.48800808 C75.45682242 266.44979958 66.44983603 266.40789155 57.44285786 266.36312145 C52.11953409 266.33673748 46.79621423 266.31187478 41.47286606 266.29092598 C36.52915347 266.27137175 31.58548469 266.24723271 26.64181137 266.21950912 C24.83498927 266.21016714 23.02815772 266.20248169 21.22132111 266.19658089 C18.75743446 266.18828053 16.29365193 266.1739977 13.82980347 266.15821838 C13.11820348 266.15724028 12.40660349 266.15626217 11.67343986 266.15525442 C7.59715361 266.12165818 4.08036293 265.68006049 0 265 C0 177.55 0 90.1 0 0 Z " fill="#030303" transform="translate(0,0)"/>
<path d="M0 0 C1.33477197 0.05573161 2.66839766 0.14249449 4 0.25 C5.22396484 0.33507812 5.22396484 0.33507812 6.47265625 0.421875 C10.26697567 0.90260325 13.02512323 1.35919884 15.90234375 3.98828125 C19.93157755 9.21938919 22.64134896 14.30014698 22.4375 21.078125 C20.70532742 29.67712459 12.08216613 37.43646285 5.171875 42.19921875 C-6.34685424 49.24336471 -15.67966308 50.72953213 -29 50.25 C-28.52534068 36.72220933 -15.47093078 1.28924423 0 0 Z " fill="#030303" transform="translate(557,229.75)"/>
</svg>
