<?xml version="1.0" standalone="no"?>
<!DOCTYPE svg PUBLIC "-//W3C//DTD SVG 20010904//EN"
 "http://www.w3.org/TR/2001/REC-SVG-20010904/DTD/svg10.dtd">
<svg version="1.0" xmlns="http://www.w3.org/2000/svg"
 width="1280.000000pt" height="1240.000000pt" viewBox="0 0 1280.000000 1240.000000"
 preserveAspectRatio="xMidYMid meet">
<metadata>
Created by potrace 1.15, written by Peter Selinger 2001-2017
</metadata>
<g transform="translate(0.000000,1240.000000) scale(0.100000,-0.100000)"
fill="#000000" stroke="none">
<path d="M6165 12370 c-290 -153 -435 -478 -435 -974 0 -130 16 -219 51 -289
12 -23 62 -97 111 -164 108 -148 220 -323 291 -452 l52 -96 -1 -175 c-1 -199
-6 -231 -103 -600 -97 -367 -117 -492 -108 -670 4 -63 9 -131 13 -151 l6 -36
-108 -6 c-60 -3 -110 -4 -113 -1 -18 18 2 158 48 342 28 112 51 211 51 220 0
10 -32 49 -71 87 -90 89 -155 179 -170 237 -12 42 -10 52 15 120 20 53 30 102
36 178 6 88 16 132 64 275 77 235 84 303 32 326 -38 18 -61 -3 -96 -88 -72
-175 -93 -193 -199 -169 -69 16 -92 11 -111 -24 -14 -27 -1 -56 76 -166 91
-131 95 -190 15 -224 -17 -7 -31 -18 -31 -24 1 -30 37 -160 95 -337 85 -261
105 -362 104 -526 -1 -70 -4 -153 -7 -183 l-7 -55 -45 -6 c-25 -4 -99 -12
-165 -19 -662 -65 -1334 -254 -1850 -518 -292 -150 -495 -292 -686 -482 -218
-217 -339 -418 -401 -667 -17 -68 -22 -119 -22 -224 l-1 -136 -165 -79 c-1515
-729 -2374 -1821 -2326 -2959 13 -328 87 -622 231 -922 574 -1196 2131 -2151
4145 -2542 1833 -355 3844 -209 5470 399 1075 403 1914 979 2429 1669 588 789
681 1710 256 2541 -413 807 -1279 1506 -2475 1997 -92 38 -95 40 -98 74 -1 19
-9 72 -17 119 -115 686 -921 1289 -2120 1585 -172 43 -496 106 -617 120 -32 4
-58 9 -58 12 0 3 33 49 73 102 41 54 87 123 102 155 25 50 27 64 23 129 -11
151 -86 306 -218 450 -70 75 -251 233 -356 310 -86 62 -110 45 -75 -52 40
-111 22 -162 -72 -194 l-42 -14 80 -26 c185 -59 306 -116 403 -190 70 -53 102
-108 102 -174 0 -48 -6 -60 -95 -193 -53 -78 -111 -173 -131 -212 l-35 -69
-52 6 c-105 11 -355 25 -478 25 -148 0 -134 -14 -144 150 -11 169 43 644 101
905 46 203 92 317 151 373 19 17 30 32 24 32 -15 0 -120 133 -205 260 -137
204 -251 455 -285 628 -16 76 -13 174 5 227 15 45 15 49 -20 168 -52 179 -75
290 -82 397 -8 112 5 170 43 199 60 48 148 18 358 -119 106 -70 145 -90 145
-76 0 2 -24 62 -53 133 -50 122 -136 290 -175 341 l-18 23 -59 -31z"/>
</g>
</svg>
